<?xml version="1.0" standalone="no"?>
<!DOCTYPE svg PUBLIC "-//W3C//DTD SVG 20010904//EN"
 "http://www.w3.org/TR/2001/REC-SVG-20010904/DTD/svg10.dtd">
<svg version="1.0" xmlns="http://www.w3.org/2000/svg"
 width="700.000000pt" height="700.000000pt" viewBox="0 0 700.000000 700.000000"
 preserveAspectRatio="xMidYMid meet">
<metadata>
Created by potrace 1.14, written by Peter Selinger 2001-2017
</metadata>
<g transform="translate(0.000000,700.000000) scale(0.100000,-0.100000)"
fill="#000000" stroke="none">
<path d="M3289 6646 c-2 -2 -38 -6 -79 -10 -106 -9 -186 -21 -306 -47 -86 -18
-104 -25 -100 -38 8 -26 54 -214 60 -241 9 -47 15 -72 21 -90 3 -10 7 -27 9
-37 2 -10 13 -56 24 -103 12 -47 32 -134 46 -195 14 -60 30 -126 36 -145 5
-19 27 -113 50 -207 99 -425 122 -519 129 -538 8 -19 21 -19 827 -21 450 0
835 -4 854 -8 57 -11 83 -15 116 -21 112 -18 258 -88 352 -170 39 -33 107
-126 139 -190 67 -133 105 -318 105 -519 0 -157 -7 -224 -33 -334 -51 -222
-161 -391 -321 -497 -32 -21 -58 -40 -58 -42 0 -6 31 -68 87 -173 27 -52 92
-176 143 -275 51 -99 100 -193 110 -210 10 -16 64 -120 120 -230 56 -110 119
-231 140 -270 97 -181 128 -245 122 -248 -4 -2 -153 -3 -332 -3 l-325 1 -56
140 c-62 156 -155 394 -219 560 -23 61 -48 124 -55 140 -7 17 -48 120 -90 230
-43 110 -79 202 -80 203 -5 6 -275 5 -280 0 -3 -3 -6 -290 -8 -639 l-2 -634
-245 0 -245 0 -5 1374 -5 1375 -320 -3 c-176 -1 -321 -4 -323 -5 -1 -2 14 -72
34 -157 20 -85 37 -161 39 -170 2 -9 8 -33 14 -55 35 -131 102 -436 97 -441
-4 -4 -114 -7 -246 -7 l-239 -1 -10 40 c-5 22 -13 55 -16 74 -3 19 -8 38 -10
41 -3 4 -7 25 -10 46 -3 22 -8 46 -11 54 -3 8 -8 26 -10 40 -3 14 -21 95 -40
180 -19 85 -36 164 -38 175 -18 90 -37 169 -42 174 -8 9 -885 8 -890 -1 -5 -8
-18 -64 -60 -258 -13 -63 -40 -185 -59 -270 -45 -199 -46 -201 -49 -225 -6
-41 -17 -63 -34 -67 -28 -6 -461 -2 -468 5 -3 3 15 95 41 204 26 109 58 243
70 298 13 55 33 138 45 185 12 47 24 96 27 110 2 14 27 117 54 230 27 113 67
284 90 380 22 96 42 182 44 190 21 81 36 145 40 171 3 18 8 35 10 39 2 3 6 17
8 31 3 13 10 44 17 69 7 25 14 55 16 67 2 12 26 114 53 225 27 112 48 205 45
207 -5 5 -137 -96 -234 -178 -106 -90 -238 -222 -317 -315 -37 -43 -72 -84
-78 -90 -21 -21 -131 -172 -177 -243 -109 -166 -219 -372 -283 -528 -20 -49
-40 -99 -45 -110 -15 -35 -81 -243 -105 -335 -1 -3 -7 -32 -15 -65 -7 -33 -15
-64 -16 -70 -10 -42 -42 -242 -48 -295 -32 -284 -25 -631 19 -895 3 -16 7 -42
9 -58 3 -15 7 -35 10 -45 3 -9 7 -35 11 -57 3 -22 10 -58 16 -80 6 -22 12 -47
14 -55 7 -38 76 -255 110 -345 41 -112 196 -434 246 -510 18 -27 53 -81 77
-118 59 -91 186 -259 247 -327 99 -110 291 -297 372 -362 170 -135 416 -301
532 -358 186 -92 331 -130 489 -126 82 2 107 7 159 31 128 57 202 182 208 349
3 93 -15 173 -59 259 -50 101 -104 161 -279 312 -7 6 -65 50 -131 99 -247 185
-365 332 -435 541 -16 50 -32 104 -35 120 -3 17 -8 46 -12 65 -12 67 -11 290
3 381 47 316 228 551 493 637 106 34 167 42 315 37 192 -5 344 -44 515 -131
98 -50 95 -46 77 -85 -12 -27 -101 -252 -137 -345 -8 -20 -11 -20 -107 28
-132 66 -232 91 -348 86 -123 -4 -189 -36 -251 -120 -52 -71 -71 -130 -80
-241 -7 -105 13 -204 61 -295 56 -106 152 -197 406 -383 246 -181 378 -343
442 -544 44 -139 52 -193 51 -355 0 -231 -40 -401 -129 -552 -25 -42 -45 -80
-45 -84 0 -3 98 -4 218 -1 200 5 265 9 347 21 45 7 129 20 135 21 3 1 25 5 50
9 25 4 90 19 145 33 669 166 1260 552 1651 1078 162 217 346 541 434 765 68
175 148 434 165 540 3 19 8 42 10 50 2 8 6 29 9 45 33 218 35 232 43 360 19
291 1 587 -52 855 -9 41 -17 85 -20 97 -20 106 -99 355 -160 504 -308 752
-921 1384 -1630 1678 -55 23 -109 46 -120 51 -75 33 -349 113 -430 126 -22 3
-42 7 -45 9 -3 2 -24 6 -46 9 -22 4 -49 8 -60 10 -11 2 -47 7 -79 11 -33 4
-71 9 -85 12 -29 6 -505 15 -511 9z"/>
<path d="M2355 6418 c-27 -12 -51 -22 -52 -23 -3 -1 -19 -81 -28 -140 -3 -16
-10 -52 -15 -80 -5 -27 -11 -61 -14 -75 -8 -50 -36 -188 -61 -310 -15 -69 -29
-135 -31 -148 -3 -13 -22 -103 -44 -200 -21 -97 -41 -188 -44 -202 -3 -14 -16
-78 -30 -143 -15 -64 -26 -118 -26 -120 0 -6 690 -1 696 6 6 6 -60 332 -116
567 -10 41 -21 93 -26 115 -4 22 -8 45 -10 50 -5 21 -34 156 -39 182 -2 16
-13 73 -24 128 -18 88 -49 264 -66 365 -3 19 -9 38 -13 42 -4 4 -29 -3 -57
-14z"/>
<path d="M4440 4304 c-1 -669 0 -797 5 -803 13 -12 269 -1 328 14 158 41 241
141 283 345 10 47 11 273 1 330 -28 169 -108 274 -246 320 -53 18 -96 24 -218
27 l-153 5 0 -238z"/>
</g>
</svg>
